<svg id="svg2" xmlns="http://www.w3.org/2000/svg" xmlns:xlink="http://www.w3.org/1999/xlink" viewBox="0 0 12.13 14.33"><defs><style>.cls-1{fill:none;}.cls-2{fill:#fff;}.cls-3{clip-path:url(#clip-path);}.cls-4{fill:#27a9e0;}</style><clipPath id="clip-path"><rect class="cls-1" width="12.13" height="14.33"/></clipPath></defs><title>Artboard 1</title><g id="g14"><rect class="cls-2" x="2.27" y="3.59" width="7.47" height="8.09"/><g class="cls-3"><g id="g16"><path id="path22" class="cls-2" d="M7.06,9.28V4.76H5.11V6.39H3.47V9.28H7.06"/><path id="path24" class="cls-4" d="M8.92,10.6v.54H4.24v-.93h.55v.39H8.38V6.08H8V5.53h.93Zm-6-.78V6l1.79-1.8H7.6V9.82ZM5.69,0C5.16,2.16,0,3,0,8.12a6.31,6.31,0,0,0,6.07,6.21,6.19,6.19,0,0,0,6.06-6.21c0-5.43-5.7-5.89-6.44-8.12"/></g></g></g></svg>